<svg xmlns="http://www.w3.org/2000/svg" xmlns:xlink="http://www.w3.org/1999/xlink" width="40" zoomAndPan="magnify" viewBox="0 0 30 30.000001" height="40" preserveAspectRatio="xMidYMid meet" version="1.0"><defs><clipPath id="317805198f"><path d="M 6 4.5 L 27.5625 4.5 L 27.5625 24.824219 L 6 24.824219 Z M 6 4.5 " clip-rule="nonzero"/></clipPath><clipPath id="74cf468f6e"><path d="M 2.433594 8 L 10 8 L 10 20 L 2.433594 20 Z M 2.433594 8 " clip-rule="nonzero"/></clipPath></defs><g clip-path="url(#317805198f)"><path fill="#202020" d="M 6.84375 21.007812 L 19.808594 21.007812 C 20.410156 21.007812 20.921875 20.558594 21 19.96875 L 22.582031 8.109375 C 22.582031 8.109375 22.582031 8.109375 22.582031 8.105469 C 22.847656 6.050781 24.609375 4.496094 26.683594 4.496094 L 26.996094 4.496094 C 27.417969 4.496094 27.757812 4.835938 27.757812 5.261719 C 27.757812 5.683594 27.417969 6.023438 26.996094 6.023438 L 26.683594 6.023438 C 25.375 6.023438 24.261719 7.003906 24.09375 8.304688 C 24.09375 8.304688 24.09375 8.304688 24.09375 8.308594 L 22.515625 20.167969 C 22.335938 21.515625 21.175781 22.535156 19.808594 22.535156 L 19.351562 22.535156 C 19.335938 23.648438 18.4375 24.542969 17.324219 24.542969 C 16.207031 24.542969 15.308594 23.648438 15.292969 22.535156 L 12.125 22.535156 C 12.109375 23.648438 11.210938 24.542969 10.097656 24.542969 C 8.980469 24.542969 8.082031 23.648438 8.066406 22.535156 L 6.84375 22.535156 C 6.421875 22.535156 6.082031 22.195312 6.082031 21.773438 C 6.082031 21.347656 6.421875 21.007812 6.84375 21.007812 Z M 6.84375 21.007812 " fill-opacity="1" fill-rule="nonzero"/></g><path fill="#77bf3f" d="M 11.421875 8.007812 L 13.945312 7.703125 C 14.90625 9.242188 16.996094 11.890625 20.695312 13.46875 L 19.992188 18.726562 C 14.769531 15.714844 12.242188 10.164062 11.421875 8.007812 Z M 11.421875 8.007812 " fill-opacity="1" fill-rule="nonzero"/><path fill="#50b948" d="M 9.855469 8.195312 C 10.574219 10.246094 13.160156 16.492188 19.003906 19.9375 L 10.984375 19.9375 C 8.292969 15.234375 7.628906 10.09375 7.476562 8.480469 Z M 9.855469 8.195312 " fill-opacity="1" fill-rule="nonzero"/><path fill="#fbcc06" d="M 20.910156 11.890625 C 18.25 10.652344 16.574219 8.8125 15.644531 7.496094 L 20.613281 6.902344 C 20.847656 6.871094 21.082031 6.957031 21.25 7.125 C 21.417969 7.292969 21.496094 7.527344 21.464844 7.761719 Z M 20.910156 11.890625 " fill-opacity="1" fill-rule="nonzero"/><g clip-path="url(#74cf468f6e)"><path fill="#38a34a" d="M 2.425781 9.316406 C 2.554688 9.152344 2.738281 9.050781 2.941406 9.027344 L 5.964844 8.664062 C 6.117188 10.371094 6.742188 15.230469 9.234375 19.9375 L 6.085938 19.9375 C 4.679688 19.9375 3.476562 18.886719 3.292969 17.492188 L 2.285156 9.886719 C 2.242188 9.683594 2.300781 9.480469 2.425781 9.316406 Z M 2.425781 9.316406 " fill-opacity="1" fill-rule="nonzero"/></g><path stroke-linecap="butt" transform="matrix(0.725806, 0, 0, 0.725806, 22.171215, 13.339533)" fill="none" stroke-linejoin="miter" d="M 0.000909156 0.500949 L 5.285979 0.500949 " stroke="#000000" stroke-width="1" stroke-opacity="1" stroke-miterlimit="4"/></svg>